<svg width="568" height="160" viewBox="0 0 568 160" fill="none" xmlns="http://www.w3.org/2000/svg">
<g clip-path="url(#clip0_5_431)">
<path d="M568 143.961C568 146.069 567.577 148.156 566.755 150.103C565.932 152.05 564.727 153.819 563.209 155.308C561.69 156.798 559.886 157.979 557.902 158.784C555.918 159.589 553.791 160.002 551.643 160H16.3776C12.0393 160.004 7.87675 158.317 4.80547 155.31C1.73419 152.302 0.00565391 148.22 0 143.961V16.0595C0.00565131 11.799 1.7335 7.71493 4.80418 4.70392C7.87484 1.6929 12.0373 0.00110588 16.3776 0H551.639C553.788 -7.17287e-08 555.915 0.415421 557.9 1.22254C559.885 2.02965 561.688 3.21265 563.207 4.70396C564.726 6.19528 565.93 7.96569 566.752 9.91409C567.574 11.8625 567.996 13.9507 567.996 16.0595L568 143.961Z" fill="white"/>
<path d="M568 143.961C568 146.069 567.577 148.156 566.755 150.103C565.932 152.05 564.727 153.819 563.209 155.308C561.69 156.798 559.886 157.979 557.902 158.784C555.918 159.589 553.791 160.002 551.643 160H16.3776C12.0393 160.004 7.87675 158.317 4.80547 155.31C1.73419 152.302 0.00565391 148.22 0 143.961V16.0595C0.00565131 11.799 1.7335 7.71493 4.80418 4.70392C7.87484 1.6929 12.0373 0.00110588 16.3776 0H551.639C553.788 -7.17287e-08 555.915 0.415421 557.9 1.22254C559.885 2.02965 561.688 3.21265 563.207 4.70396C564.726 6.19528 565.93 7.96569 566.752 9.91409C567.574 11.8625 567.996 13.9507 567.996 16.0595L568 143.961Z" fill="black"/>
<path d="M124.734 79.1209C124.61 65.6242 135.992 59.058 136.512 58.7523C130.067 49.527 120.075 48.2666 116.565 48.1661C108.172 47.2992 100.033 53.0949 95.7583 53.0949C91.3983 53.0949 84.8157 48.2498 77.7211 48.3922C68.5916 48.5304 60.0508 53.7188 55.3666 61.7758C45.6996 78.2038 52.9093 102.345 62.1711 115.624C66.8041 122.132 72.2179 129.389 79.3039 129.133C86.2363 128.857 88.8258 124.799 97.1917 124.799C105.48 124.799 107.913 129.133 115.14 128.97C122.58 128.857 127.264 122.437 131.734 115.875C137.088 108.426 139.239 101.081 139.323 100.704C139.153 100.645 124.879 95.2934 124.734 79.1209ZM111.082 39.4307C114.811 34.8537 117.361 28.6267 116.654 22.3076C111.258 22.5421 104.508 25.9718 100.622 30.4483C97.1832 34.393 94.1116 40.8587 94.9051 46.9391C100.967 47.383 107.192 43.9366 111.082 39.4307Z" fill="white"/>
<path d="M225.145 128.199H215.456L210.149 111.83H191.702L186.647 128.199H177.215L195.495 72.4705H206.784L225.145 128.199ZM208.549 104.962L203.75 90.4102C203.242 88.9236 202.287 85.4227 200.887 79.9118H200.716C200.154 82.282 199.254 85.7829 198.021 90.4102L193.302 104.962H208.549ZM272.064 107.613C272.064 114.447 270.174 119.849 266.389 123.815C263.002 127.345 258.791 129.108 253.77 129.108C248.348 129.108 244.448 127.211 242.081 123.408V144.493H232.985V101.223C232.985 96.9303 232.871 92.5291 232.649 88.0149H240.648L241.155 94.3842H241.326C244.36 89.5852 248.963 87.1857 255.139 87.1857C259.969 87.1857 264 89.0576 267.226 92.8055C270.447 96.5618 272.064 101.495 272.064 107.613ZM262.797 107.939C262.797 104.028 261.901 100.804 260.101 98.2619C258.135 95.6195 255.494 94.2963 252.183 94.2963C249.939 94.2963 247.9 95.0333 246.079 96.4864C244.252 97.952 243.058 99.8658 242.499 102.236C242.25 103.122 242.108 104.035 242.076 104.954V111.658C242.076 114.577 242.99 117.043 244.815 119.062C246.642 121.072 249.014 122.081 251.931 122.081C255.357 122.081 258.023 120.779 259.93 118.195C261.842 115.603 262.797 112.186 262.797 107.939ZM319.149 107.613C319.149 114.447 317.259 119.849 313.475 123.815C310.083 127.345 305.876 129.108 300.851 129.108C295.428 129.108 291.53 127.211 289.162 123.408V144.493H280.067V101.223C280.067 96.9303 279.951 92.5291 279.73 88.0149H287.729L288.237 94.3842H288.407C291.436 89.5852 296.039 87.1857 302.221 87.1857C307.046 87.1857 311.077 89.0576 314.31 92.8055C317.527 96.5618 319.149 101.495 319.149 107.613ZM309.879 107.939C309.879 104.028 308.978 100.804 307.178 98.2619C305.211 95.6195 302.579 94.2963 299.269 94.2963C297.024 94.2963 294.985 95.0333 293.155 96.4864C291.329 97.952 290.139 99.8658 289.58 102.236C289.303 103.341 289.154 104.242 289.154 104.954V111.658C289.154 114.577 290.07 117.043 291.888 119.062C293.714 121.068 296.086 122.081 299.012 122.081C302.443 122.081 305.109 120.779 307.011 118.195C308.923 115.603 309.879 112.186 309.879 107.939ZM371.793 112.567C371.793 117.311 370.103 121.168 366.746 124.146C363.051 127.395 357.893 129.024 351.281 129.024C345.172 129.024 340.274 127.868 336.58 125.553L338.683 118.111C342.672 120.431 347.053 121.587 351.823 121.587C355.252 121.587 357.919 120.825 359.822 119.313C361.729 117.797 362.693 115.77 362.693 113.241C362.693 110.975 361.895 109.079 360.33 107.533C358.755 105.992 356.153 104.556 352.497 103.237C342.557 99.5978 337.582 94.2753 337.582 87.2737C337.582 82.7008 339.34 78.9571 342.847 76.0299C346.353 73.107 351.004 71.6455 356.789 71.6455C361.955 71.6455 366.259 72.5291 369.676 74.2921L367.394 81.5701C364.178 79.8616 360.547 79.0073 356.485 79.0073C353.278 79.0073 350.76 79.782 348.96 81.3231C347.445 82.7008 346.678 84.38 346.678 86.3733C346.678 88.5718 347.553 90.3976 349.293 91.8298C350.803 93.1489 353.56 94.5852 357.544 96.1262C362.433 98.0609 366.025 100.314 368.324 102.902C370.64 105.49 371.793 108.718 371.793 112.567ZM401.941 94.715H391.916V114.225C391.916 119.187 393.682 121.662 397.223 121.662C398.848 121.662 400.196 121.528 401.262 121.248L401.515 128.027C399.723 128.685 397.364 129.016 394.441 129.016C390.849 129.016 388.042 127.939 386.015 125.787C383.998 123.635 382.982 120.029 382.982 114.954V94.6983H377.01V87.9981H382.982V80.6405L391.916 77.9939V87.9981H401.941V94.715ZM447.085 107.776C447.085 113.953 445.285 119.024 441.693 122.99C437.934 127.073 432.935 129.108 426.702 129.108C420.687 129.108 415.904 127.152 412.337 123.245C408.771 119.33 406.988 114.397 406.988 108.446C406.988 102.219 408.831 97.1187 412.504 93.153C416.186 89.1832 421.143 87.1983 427.376 87.1983C433.383 87.1983 438.208 89.1581 441.859 93.0693C445.349 96.8633 447.085 101.763 447.085 107.776ZM437.657 107.981C437.657 104.3 436.846 101.143 435.221 98.5006C433.315 95.3097 430.584 93.7142 427.047 93.7142C423.404 93.7142 420.61 95.3097 418.707 98.5006C417.077 101.143 416.266 104.355 416.266 108.149C416.266 111.834 417.077 115 418.707 117.634C420.673 120.825 423.416 122.42 426.971 122.42C430.447 122.42 433.174 120.791 435.144 117.554C436.816 114.849 437.657 111.671 437.657 107.981ZM476.662 95.8666C475.716 95.699 474.757 95.6163 473.796 95.6195C470.596 95.6195 468.122 96.8004 466.381 99.179C464.871 101.273 464.111 103.919 464.111 107.115V128.199H455.016V100.67C455.024 96.4515 454.936 92.2335 454.751 88.019H462.674L463.007 95.7075H463.258C464.223 93.0651 465.732 90.9336 467.806 89.3381C469.703 87.944 472.009 87.189 474.38 87.1857C475.22 87.1857 475.98 87.2443 476.654 87.349L476.662 95.8666ZM517.34 106.206C517.363 107.563 517.252 108.919 517.007 110.255H489.721C489.823 114.225 491.145 117.265 493.68 119.359C495.979 121.227 498.953 122.165 502.604 122.165C506.645 122.165 510.331 121.537 513.646 120.268L515.07 126.461C511.197 128.12 506.623 128.945 501.346 128.945C494.998 128.945 490.015 127.11 486.389 123.45C482.771 119.786 480.958 114.862 480.958 108.693C480.958 102.638 482.644 97.5919 486.018 93.5676C489.551 89.2711 494.324 87.1229 500.33 87.1229C506.231 87.1229 510.697 89.2711 513.73 93.5676C516.132 96.9721 517.34 101.193 517.34 106.206ZM508.666 103.89C508.731 101.239 508.133 98.9571 506.9 97.0266C505.326 94.5391 502.904 93.2996 499.657 93.2996C496.683 93.2996 494.26 94.5098 492.417 96.9386C490.902 98.8691 490.002 101.189 489.725 103.882L508.666 103.89Z" fill="white"/>
<path d="M208.607 42.2V46.6L207.913 47H206.401V47.76C206.401 53.7067 201.824 56.68 192.671 56.68C188.775 56.68 185.765 56.1467 183.64 55.08C181.515 54.04 180.071 52.6133 179.308 50.8C178.545 48.9867 178.164 46.76 178.164 44.12C178.164 42.5467 178.3 40.96 178.573 39.36C178.845 37.7333 179.158 36.4933 179.513 35.64H184.008C183.762 36.4933 183.504 37.6533 183.231 39.12C182.986 40.56 182.863 42.0533 182.863 43.6C182.863 45.7067 183.163 47.32 183.762 48.44C184.389 49.56 185.424 50.3467 186.868 50.8C188.311 51.2533 190.382 51.48 193.079 51.48C195.503 51.48 197.342 51.3333 198.596 51.04C199.849 50.7733 200.68 50.4 201.088 49.92C201.497 49.4667 201.701 48.8933 201.701 48.2V47H195.041V41.8H207.913L208.607 42.2ZM221.753 42.2V46.6L221.058 47C219.614 47 218.443 46.8133 217.544 46.44C216.672 46.04 216.005 45.44 215.542 44.64C214.288 46.2133 212.013 47 208.718 47L208.023 46.6V42.2L208.718 41.8C209.725 41.8 210.488 41.7333 211.006 41.6C211.55 41.4667 211.946 41.2 212.191 40.8C212.463 40.3733 212.6 39.7333 212.6 38.88V18.48H217.095V39.12C217.095 39.9733 217.23 40.6 217.503 41C217.775 41.3733 218.157 41.6 218.647 41.68C219.164 41.76 219.968 41.8 221.058 41.8L221.753 42.2ZM241.97 41.8V47H221.865L221.171 46.88V41.96L221.865 41.8H224.848C224.167 40.76 223.827 39.3467 223.827 37.56C223.827 34.68 224.712 32.5333 226.483 31.12C228.253 29.68 230.542 28.96 233.348 28.96C234.71 28.96 236.017 29.08 237.271 29.32C238.551 29.56 239.532 29.8267 240.213 30.12L239.11 34.92C238.129 34.7067 237.217 34.5333 236.372 34.4C235.555 34.24 234.546 34.16 233.348 34.16C231.713 34.16 230.501 34.4667 229.711 35.08C228.921 35.6667 228.526 36.4933 228.526 37.56C228.526 39.0267 228.962 40.1067 229.834 40.8C230.705 41.4667 232.217 41.8 234.37 41.8H241.97ZM268.83 55.68C264.444 55.68 261.338 54.56 259.513 52.32C257.687 50.08 256.775 47.2 256.775 43.68C256.775 42.16 256.925 40.6133 257.224 39.04C257.551 37.4667 257.919 36.24 258.328 35.36H262.823C262.523 36.2667 262.223 37.4267 261.924 38.84C261.624 40.2533 261.474 41.7333 261.474 43.28C261.474 45.5467 262.033 47.3067 263.15 48.56C264.266 49.84 266.283 50.48 269.197 50.48C272.03 50.48 273.992 50 275.082 49.04C276.172 48.08 276.716 46.68 276.716 44.84V29.92H281.211V44.8C281.211 48 280.23 50.6133 278.269 52.64C276.308 54.6667 273.161 55.68 268.83 55.68ZM266.827 26.24H271.322V30.64H266.827V26.24ZM308.686 18.48V38.68C308.686 41.6133 308.046 43.7333 306.765 45.04C305.513 46.3467 303.36 47 300.309 47H285.72V41.8H293.117V26.04H297.612V41.8H300.309C301.317 41.8 302.08 41.7333 302.597 41.6C303.142 41.4667 303.537 41.2 303.782 40.8C304.055 40.3733 304.191 39.7333 304.191 38.88V18.48H308.686ZM300.676 22.16C300.377 22.4267 299.941 22.68 299.369 22.92C298.824 23.1333 298.265 23.24 297.693 23.24C297.067 23.24 296.222 23.04 295.16 22.64C294.833 22.5067 294.506 22.4 294.179 22.32C293.852 22.2133 293.566 22.16 293.321 22.16C292.422 22.16 291.537 22.44 290.665 23L289.848 20.68C290.23 20.3867 290.72 20.1333 291.319 19.92C291.918 19.7067 292.518 19.6 293.117 19.6C293.471 19.6 293.826 19.6533 294.179 19.76C294.534 19.8667 294.86 19.9867 295.16 20.12C295.977 20.4933 296.699 20.68 297.326 20.68C297.789 20.68 298.225 20.6133 298.633 20.48C299.042 20.3467 299.491 20.1333 299.982 19.84L300.676 22.16ZM315.229 18.48H319.724V47H315.229V18.48ZM358.344 41.96V46.84L357.649 47C355.416 47 353.618 46.64 352.255 45.92C350.921 45.2 350.008 43.9333 349.517 42.12C349.082 43.1333 348.401 43.9333 347.474 44.52C346.575 45.1067 345.282 45.4 343.592 45.4C340.923 45.4 338.934 44.6 337.626 43C336.318 41.4 335.665 39.4 335.665 37C335.665 35.0533 336.101 33.3467 336.972 31.88C337.845 30.3867 339.071 29.2267 340.65 28.4C342.23 27.5733 344.069 27.16 346.166 27.16C347.121 27.16 348.087 27.32 349.068 27.64V25.92H353.563L353.522 38.24C353.522 39.2 353.644 39.9333 353.89 40.44C354.135 40.9467 354.543 41.3067 355.115 41.52C355.715 41.7067 356.56 41.8 357.649 41.8L358.344 41.96ZM344.695 40.2C346.766 40.2 348.224 39.72 349.068 38.76V38.48V32.64C348.115 32.4533 347.121 32.36 346.085 32.36C344.205 32.36 342.775 32.7333 341.794 33.48C340.841 34.2 340.364 35.1733 340.364 36.4C340.364 37.52 340.732 38.44 341.467 39.16C342.203 39.8533 343.279 40.2 344.695 40.2ZM371.512 42.2V46.6L370.817 47C369.374 47 368.202 46.8133 367.303 46.44C366.432 46.04 365.763 45.44 365.301 44.64C364.047 46.2133 361.773 47 358.476 47L357.782 46.6V42.2L358.476 41.8C359.485 41.8 360.247 41.7333 360.765 41.6C361.309 41.4667 361.705 41.2 361.95 40.8C362.223 40.3733 362.359 39.7333 362.359 38.88V18.48H366.853V39.12C366.853 39.9733 366.989 40.6 367.262 41C367.535 41.3733 367.916 41.6 368.406 41.68C368.924 41.76 369.727 41.8 370.817 41.8L371.512 42.2ZM397.082 42.2V46.6L396.387 47C394.944 47 393.786 46.8133 392.914 46.44C392.043 46.0667 391.376 45.4933 390.912 44.72C389.359 46.5067 386.853 47.4 383.393 47.4C380.723 47.4 378.612 46.7067 377.059 45.32C376.487 45.88 375.766 46.3067 374.893 46.6C374.049 46.8667 372.959 47 371.624 47L370.93 46.6V42.2L371.624 41.8C372.442 41.8 373.095 41.7733 373.586 41.72C374.076 41.64 374.471 41.5067 374.771 41.32C374.581 40.6 374.485 39.7867 374.485 38.88C374.485 36.9333 374.908 35.2133 375.751 33.72C376.596 32.2 377.795 31.0267 379.347 30.2C380.928 29.3733 382.739 28.96 384.782 28.96C386.227 28.96 387.616 29.1467 388.95 29.52C390.313 29.8667 391.471 30.3067 392.424 30.84V39.12C392.424 39.9733 392.561 40.6 392.832 41C393.105 41.3733 393.486 41.6 393.976 41.68C394.494 41.76 395.298 41.8 396.387 41.8L397.082 42.2ZM387.929 34.88C386.894 34.4 385.681 34.16 384.292 34.16C382.603 34.16 381.323 34.5333 380.451 35.28C379.607 36.0267 379.184 37.0267 379.184 38.28C379.184 39.4533 379.566 40.4 380.328 41.12C381.091 41.84 382.222 42.2 383.72 42.2C385.954 42.2 387.343 41.6533 387.888 40.56L387.929 34.88ZM396.528 41.96L397.223 41.8H415.244V38.56C415.244 36.9333 414.672 35.8 413.528 35.16C412.411 34.4933 410.967 34.16 409.196 34.16C406.2 34.16 403.271 34.72 400.41 35.84L399.266 31.4C402.454 29.7733 405.914 28.96 409.646 28.96C412.37 28.96 414.768 29.56 416.837 30.76C418.908 31.96 419.943 34.24 419.943 37.6V41.8C419.943 45.2667 418.39 47 415.285 47H397.223L396.528 46.84V41.96Z" fill="white"/>
<path d="M208.607 42.2V46.6L207.913 47H206.401V47.76C206.401 53.7067 201.824 56.68 192.671 56.68C188.775 56.68 185.765 56.1467 183.64 55.08C181.515 54.04 180.071 52.6133 179.308 50.8C178.545 48.9867 178.164 46.76 178.164 44.12C178.164 42.5467 178.3 40.96 178.573 39.36C178.845 37.7333 179.158 36.4933 179.513 35.64H184.008C183.762 36.4933 183.504 37.6533 183.231 39.12C182.986 40.56 182.863 42.0533 182.863 43.6C182.863 45.7067 183.163 47.32 183.762 48.44C184.389 49.56 185.424 50.3467 186.868 50.8C188.311 51.2533 190.382 51.48 193.079 51.48C195.503 51.48 197.342 51.3333 198.596 51.04C199.849 50.7733 200.68 50.4 201.088 49.92C201.497 49.4667 201.701 48.8933 201.701 48.2V47H195.041V41.8H207.913L208.607 42.2ZM221.753 42.2V46.6L221.058 47C219.614 47 218.443 46.8133 217.544 46.44C216.672 46.04 216.005 45.44 215.542 44.64C214.288 46.2133 212.013 47 208.718 47L208.023 46.6V42.2L208.718 41.8C209.725 41.8 210.488 41.7333 211.006 41.6C211.55 41.4667 211.946 41.2 212.191 40.8C212.463 40.3733 212.6 39.7333 212.6 38.88V18.48H217.095V39.12C217.095 39.9733 217.23 40.6 217.503 41C217.775 41.3733 218.157 41.6 218.647 41.68C219.164 41.76 219.968 41.8 221.058 41.8L221.753 42.2ZM241.97 41.8V47H221.865L221.171 46.88V41.96L221.865 41.8H224.848C224.167 40.76 223.827 39.3467 223.827 37.56C223.827 34.68 224.712 32.5333 226.483 31.12C228.253 29.68 230.542 28.96 233.348 28.96C234.71 28.96 236.017 29.08 237.271 29.32C238.551 29.56 239.532 29.8267 240.213 30.12L239.11 34.92C238.129 34.7067 237.217 34.5333 236.372 34.4C235.555 34.24 234.546 34.16 233.348 34.16C231.713 34.16 230.501 34.4667 229.711 35.08C228.921 35.6667 228.526 36.4933 228.526 37.56C228.526 39.0267 228.962 40.1067 229.834 40.8C230.705 41.4667 232.217 41.8 234.37 41.8H241.97ZM268.83 55.68C264.444 55.68 261.338 54.56 259.513 52.32C257.687 50.08 256.775 47.2 256.775 43.68C256.775 42.16 256.925 40.6133 257.224 39.04C257.551 37.4667 257.919 36.24 258.328 35.36H262.823C262.523 36.2667 262.223 37.4267 261.924 38.84C261.624 40.2533 261.474 41.7333 261.474 43.28C261.474 45.5467 262.033 47.3067 263.15 48.56C264.266 49.84 266.283 50.48 269.197 50.48C272.03 50.48 273.992 50 275.082 49.04C276.172 48.08 276.716 46.68 276.716 44.84V29.92H281.211V44.8C281.211 48 280.23 50.6133 278.269 52.64C276.308 54.6667 273.161 55.68 268.83 55.68ZM266.827 26.24H271.322V30.64H266.827V26.24ZM308.686 18.48V38.68C308.686 41.6133 308.046 43.7333 306.765 45.04C305.513 46.3467 303.36 47 300.309 47H285.72V41.8H293.117V26.04H297.612V41.8H300.309C301.317 41.8 302.08 41.7333 302.597 41.6C303.142 41.4667 303.537 41.2 303.782 40.8C304.055 40.3733 304.191 39.7333 304.191 38.88V18.48H308.686ZM300.676 22.16C300.377 22.4267 299.941 22.68 299.369 22.92C298.824 23.1333 298.265 23.24 297.693 23.24C297.067 23.24 296.222 23.04 295.16 22.64C294.833 22.5067 294.506 22.4 294.179 22.32C293.852 22.2133 293.566 22.16 293.321 22.16C292.422 22.16 291.537 22.44 290.665 23L289.848 20.68C290.23 20.3867 290.72 20.1333 291.319 19.92C291.918 19.7067 292.518 19.6 293.117 19.6C293.471 19.6 293.826 19.6533 294.179 19.76C294.534 19.8667 294.86 19.9867 295.16 20.12C295.977 20.4933 296.699 20.68 297.326 20.68C297.789 20.68 298.225 20.6133 298.633 20.48C299.042 20.3467 299.491 20.1333 299.982 19.84L300.676 22.16ZM315.229 18.48H319.724V47H315.229V18.48ZM358.344 41.96V46.84L357.649 47C355.416 47 353.618 46.64 352.255 45.92C350.921 45.2 350.008 43.9333 349.517 42.12C349.082 43.1333 348.401 43.9333 347.474 44.52C346.575 45.1067 345.282 45.4 343.592 45.4C340.923 45.4 338.934 44.6 337.626 43C336.318 41.4 335.665 39.4 335.665 37C335.665 35.0533 336.101 33.3467 336.972 31.88C337.845 30.3867 339.071 29.2267 340.65 28.4C342.23 27.5733 344.069 27.16 346.166 27.16C347.121 27.16 348.087 27.32 349.068 27.64V25.92H353.563L353.522 38.24C353.522 39.2 353.644 39.9333 353.89 40.44C354.135 40.9467 354.543 41.3067 355.115 41.52C355.715 41.7067 356.56 41.8 357.649 41.8L358.344 41.96ZM344.695 40.2C346.766 40.2 348.224 39.72 349.068 38.76V38.48V32.64C348.115 32.4533 347.121 32.36 346.085 32.36C344.205 32.36 342.775 32.7333 341.794 33.48C340.841 34.2 340.364 35.1733 340.364 36.4C340.364 37.52 340.732 38.44 341.467 39.16C342.203 39.8533 343.279 40.2 344.695 40.2ZM371.512 42.2V46.6L370.817 47C369.374 47 368.202 46.8133 367.303 46.44C366.432 46.04 365.763 45.44 365.301 44.64C364.047 46.2133 361.773 47 358.476 47L357.782 46.6V42.2L358.476 41.8C359.485 41.8 360.247 41.7333 360.765 41.6C361.309 41.4667 361.705 41.2 361.95 40.8C362.223 40.3733 362.359 39.7333 362.359 38.88V18.48H366.853V39.12C366.853 39.9733 366.989 40.6 367.262 41C367.535 41.3733 367.916 41.6 368.406 41.68C368.924 41.76 369.727 41.8 370.817 41.8L371.512 42.2ZM397.082 42.2V46.6L396.387 47C394.944 47 393.786 46.8133 392.914 46.44C392.043 46.0667 391.376 45.4933 390.912 44.72C389.359 46.5067 386.853 47.4 383.393 47.4C380.723 47.4 378.612 46.7067 377.059 45.32C376.487 45.88 375.766 46.3067 374.893 46.6C374.049 46.8667 372.959 47 371.624 47L370.93 46.6V42.2L371.624 41.8C372.442 41.8 373.095 41.7733 373.586 41.72C374.076 41.64 374.471 41.5067 374.771 41.32C374.581 40.6 374.485 39.7867 374.485 38.88C374.485 36.9333 374.908 35.2133 375.751 33.72C376.596 32.2 377.795 31.0267 379.347 30.2C380.928 29.3733 382.739 28.96 384.782 28.96C386.227 28.96 387.616 29.1467 388.95 29.52C390.313 29.8667 391.471 30.3067 392.424 30.84V39.12C392.424 39.9733 392.561 40.6 392.832 41C393.105 41.3733 393.486 41.6 393.976 41.68C394.494 41.76 395.298 41.8 396.387 41.8L397.082 42.2ZM387.929 34.88C386.894 34.4 385.681 34.16 384.292 34.16C382.603 34.16 381.323 34.5333 380.451 35.28C379.607 36.0267 379.184 37.0267 379.184 38.28C379.184 39.4533 379.566 40.4 380.328 41.12C381.091 41.84 382.222 42.2 383.72 42.2C385.954 42.2 387.343 41.6533 387.888 40.56L387.929 34.88ZM396.528 41.96L397.223 41.8H415.244V38.56C415.244 36.9333 414.672 35.8 413.528 35.16C412.411 34.4933 410.967 34.16 409.196 34.16C406.2 34.16 403.271 34.72 400.41 35.84L399.266 31.4C402.454 29.7733 405.914 28.96 409.646 28.96C412.37 28.96 414.768 29.56 416.837 30.76C418.908 31.96 419.943 34.24 419.943 37.6V41.8C419.943 45.2667 418.39 47 415.285 47H397.223L396.528 46.84V41.96Z" fill="white"/>
</g>
<defs>
<clipPath id="clip0_5_431">
<rect width="568" height="160" fill="white"/>
</clipPath>
</defs>
</svg>
