<svg width="568" height="162" viewBox="0 0 568 162" fill="none" xmlns="http://www.w3.org/2000/svg">
<path d="M546.965 161.792H21.037C9.46682 161.792 0 152.692 0 141.568V20.2241C0 9.1008 9.4666 0 21.037 0H546.962C558.533 0 568 9.1008 568 20.2241V141.568C568 152.692 558.533 161.792 546.962 161.792" fill="black"/>
<path fill-rule="evenodd" clip-rule="evenodd" d="M66.5853 25.2308C43.2472 25.2308 34.7111 33.7607 34.7111 57.0815V106.919C34.7111 130.239 43.2472 138.769 66.5853 138.769H116.422C139.759 138.769 148.311 130.239 148.311 106.919V57.0815C148.311 33.7607 139.775 25.2308 116.437 25.2308H66.5853Z" fill="url(#paint0_linear_7_466)"/>
<path fill-rule="evenodd" clip-rule="evenodd" d="M84.2632 91.0809H88.8236L86.5355 85.7625L84.2632 91.0809ZM83.1401 93.761L81.787 96.8552H78.7062L85.2572 82.0009H87.9198L94.4442 96.8552H91.2814L89.9457 93.761H83.1401ZM132.712 96.8442H135.689V82H132.712V96.8442ZM120.861 90.4674H126.349V87.7608H120.861V84.7186H128.828V82.011H117.885V96.8543H129.115V94.1467H120.861V90.4674ZM109.031 92.2213L105.656 82H103.192L99.8166 92.2213L96.5316 82.0082H93.3193L98.5035 96.8634H101.001L104.382 87.1058L107.763 96.8634H110.282L115.452 82.0082H112.323L109.031 92.2213ZM74.1613 90.5084C74.1613 92.9249 72.9606 94.2161 70.7801 94.2161C68.5879 94.2161 67.3809 92.8877 67.3809 90.4053V82.0101H64.3633V90.5084C64.3633 94.6889 66.688 97.0861 70.7391 97.0861C74.8306 97.0861 77.1761 94.6431 77.1761 90.3845V82.0009H74.1613V90.5084ZM57.1642 82.0009H60.18V96.8644H57.1642V90.8279H50.351V96.8644H47.3334V82.0009H50.351V87.9964H57.1642V82.0009Z" fill="white"/>
<path fill-rule="evenodd" clip-rule="evenodd" d="M91.5111 63.0769C81.0703 63.0769 72.5778 54.588 72.5778 44.1538H75.2521C75.2521 53.1136 82.5465 60.4031 91.5111 60.4031C100.476 60.4031 107.77 53.1136 107.77 44.1538H110.444C110.444 54.588 101.951 63.0769 91.5111 63.0769Z" fill="white"/>
<path d="M197.792 83.3984L183.047 126.154H174.132L192.708 76.8258H198.402L197.792 83.3984ZM210.131 126.154L195.352 83.3984L194.708 76.8258H200.436L219.08 126.154H210.131ZM209.419 107.859V114.601H182.572V107.859H209.419ZM231.385 96.5433V140.248H223.215V89.4967H230.741L231.385 96.5433ZM255.283 107.487V108.198C255.283 110.863 254.966 113.336 254.333 115.617C253.723 117.876 252.808 119.852 251.588 121.546C250.39 123.218 248.91 124.516 247.147 125.442C245.384 126.368 243.351 126.831 241.046 126.831C238.763 126.831 236.763 126.414 235.046 125.578C233.351 124.719 231.916 123.511 230.741 121.953C229.566 120.394 228.616 118.565 227.893 116.464C227.193 114.341 226.696 112.015 226.402 109.485V106.741C226.696 104.053 227.193 101.614 227.893 99.4231C228.616 97.2324 229.566 95.3464 230.741 93.7654C231.916 92.1844 233.351 90.9645 235.046 90.1063C236.74 89.2481 238.718 88.8189 240.978 88.8189C243.283 88.8189 245.328 89.2705 247.113 90.1741C248.899 91.055 250.401 92.3197 251.622 93.9685C252.842 95.5946 253.757 97.5598 254.367 99.8637C254.977 102.145 255.283 104.686 255.283 107.487ZM247.113 108.198V107.487C247.113 105.792 246.955 104.223 246.639 102.777C246.322 101.309 245.825 100.022 245.147 98.915C244.469 97.8083 243.599 96.9498 242.537 96.3402C241.497 95.7078 240.243 95.3915 238.775 95.3915C237.328 95.3915 236.085 95.64 235.046 96.1368C234.006 96.6111 233.136 97.2775 232.436 98.1357C231.735 98.9938 231.193 99.999 230.809 101.151C230.424 102.28 230.153 103.511 229.995 104.844V111.416C230.266 113.043 230.729 114.533 231.385 115.888C232.04 117.244 232.967 118.328 234.164 119.141C235.385 119.931 236.944 120.326 238.842 120.326C240.311 120.326 241.565 120.01 242.605 119.378C243.644 118.745 244.492 117.876 245.147 116.769C245.825 115.64 246.322 114.341 246.639 112.873C246.955 111.405 247.113 109.847 247.113 108.198ZM270.435 96.5433V140.248H262.265V89.4967H269.791L270.435 96.5433ZM294.333 107.487V108.198C294.333 110.863 294.016 113.336 293.383 115.617C292.773 117.876 291.858 119.852 290.638 121.546C289.44 123.218 287.96 124.516 286.197 125.442C284.434 126.368 282.401 126.831 280.096 126.831C277.813 126.831 275.813 126.414 274.096 125.578C272.401 124.719 270.966 123.511 269.791 121.953C268.616 120.394 267.666 118.565 266.943 116.464C266.243 114.341 265.746 112.015 265.452 109.485V106.741C265.746 104.053 266.243 101.614 266.943 99.4231C267.666 97.2324 268.616 95.3464 269.791 93.7654C270.966 92.1844 272.401 90.9645 274.096 90.1063C275.79 89.2481 277.768 88.8189 280.028 88.8189C282.333 88.8189 284.378 89.2705 286.163 90.1741C287.949 91.055 289.451 92.3197 290.672 93.9685C291.892 95.5946 292.807 97.5598 293.417 99.8637C294.027 102.145 294.333 104.686 294.333 107.487ZM286.163 108.198V107.487C286.163 105.792 286.005 104.223 285.689 102.777C285.372 101.309 284.875 100.022 284.197 98.915C283.519 97.8083 282.649 96.9498 281.587 96.3402C280.547 95.7078 279.293 95.3915 277.825 95.3915C276.378 95.3915 275.135 95.64 274.096 96.1368C273.056 96.6111 272.186 97.2775 271.486 98.1357C270.785 98.9938 270.243 99.999 269.859 101.151C269.474 102.28 269.203 103.511 269.045 104.844V111.416C269.316 113.043 269.779 114.533 270.435 115.888C271.09 117.244 272.017 118.328 273.214 119.141C274.435 119.931 275.994 120.326 277.892 120.326C279.361 120.326 280.615 120.01 281.655 119.378C282.694 118.745 283.542 117.876 284.197 116.769C284.875 115.64 285.372 114.341 285.689 112.873C286.005 111.405 286.163 109.847 286.163 108.198ZM339.992 100.948V119.785C339.292 120.711 338.197 121.727 336.704 122.834C335.237 123.918 333.28 124.855 330.841 125.646C328.399 126.436 325.36 126.831 321.721 126.831C318.626 126.831 315.789 126.312 313.213 125.273C310.637 124.211 308.411 122.664 306.536 120.631C304.683 118.599 303.248 116.126 302.231 113.212C301.214 110.276 300.705 106.933 300.705 103.184V99.7618C300.705 96.0352 301.169 92.7152 302.095 89.8013C303.044 86.8651 304.4 84.3808 306.163 82.3482C307.925 80.3152 310.05 78.7793 312.536 77.7404C315.044 76.6788 317.881 76.148 321.043 76.148C325.088 76.148 328.433 76.8258 331.078 78.181C333.744 79.5135 335.802 81.3654 337.247 83.7371C338.692 86.1085 339.607 88.8189 339.992 91.868H331.655C331.384 90.1514 330.85 88.6158 330.062 87.2606C329.292 85.9054 328.184 84.8438 326.739 84.0758C325.316 83.2855 323.463 82.89 321.179 82.89C319.213 82.89 317.484 83.2628 315.994 84.008C314.502 84.7533 313.259 85.8489 312.264 87.2943C311.293 88.7397 310.558 90.5015 310.061 92.5795C309.564 94.6573 309.315 97.029 309.315 99.6943V103.184C309.315 105.894 309.598 108.3 310.163 110.4C310.75 112.501 311.586 114.274 312.671 115.719C313.778 117.164 315.123 118.26 316.704 119.005C318.288 119.728 320.071 120.089 322.062 120.089C324.003 120.089 325.596 119.931 326.84 119.615C328.083 119.276 329.068 118.881 329.79 118.429C330.535 117.955 331.112 117.503 331.519 117.074V107.283H321.248V100.948H339.992ZM369.279 118.802V101.32C369.279 100.01 369.042 98.8809 368.569 97.9326C368.092 96.9839 367.37 96.2497 366.398 95.7302C365.451 95.2108 364.252 94.9509 362.807 94.9509C361.472 94.9509 360.32 95.1771 359.348 95.6287C358.376 96.0803 357.619 96.6903 357.076 97.4582C356.534 98.2262 356.262 99.0957 356.262 100.067H348.127C348.127 98.6214 348.477 97.2211 349.178 95.8659C349.878 94.5106 350.898 93.3024 352.229 92.2408C353.564 91.1792 355.155 90.3435 357.01 89.7335C358.862 89.1239 360.942 88.8189 363.245 88.8189C366.003 88.8189 368.443 89.2819 370.569 90.2079C372.715 91.1341 374.397 92.5345 375.618 94.4091C376.862 96.261 377.483 98.5873 377.483 101.388V117.684C377.483 119.355 377.597 120.857 377.821 122.19C378.07 123.5 378.42 124.641 378.872 125.612V126.154H370.5C370.115 125.273 369.812 124.155 369.585 122.8C369.383 121.422 369.279 120.089 369.279 118.802ZM370.465 103.861L370.535 108.909H364.669C363.157 108.909 361.822 109.056 360.67 109.35C359.519 109.621 358.556 110.027 357.789 110.569C357.02 111.112 356.445 111.767 356.06 112.534C355.675 113.302 355.483 114.172 355.483 115.143C355.483 116.114 355.71 117.006 356.161 117.819C356.612 118.61 357.269 119.231 358.127 119.683C359.011 120.135 360.071 120.361 361.314 120.361C362.987 120.361 364.445 120.022 365.688 119.344C366.953 118.644 367.947 117.797 368.67 116.803C369.392 115.787 369.777 114.827 369.822 113.924L372.466 117.549C372.195 118.475 371.731 119.468 371.078 120.53C370.421 121.591 369.563 122.608 368.499 123.579C367.461 124.528 366.205 125.307 364.738 125.917C363.293 126.527 361.62 126.831 359.721 126.831C357.326 126.831 355.189 126.357 353.315 125.409C351.437 124.437 349.97 123.138 348.907 121.512C347.846 119.863 347.313 118 347.313 115.922C347.313 113.98 347.676 112.263 348.399 110.773C349.146 109.259 350.229 107.995 351.652 106.978C353.1 105.962 354.861 105.194 356.941 104.675C359.02 104.132 361.393 103.861 364.06 103.861H370.465ZM394.773 74.1154V126.154H386.568V74.1154H394.773ZM412.466 74.1154V126.154H404.261V74.1154H412.466ZM437.584 126.831C434.873 126.831 432.421 126.391 430.228 125.51C428.057 124.607 426.205 123.353 424.668 121.749C423.154 120.146 421.989 118.26 421.178 116.092C420.364 113.924 419.957 111.586 419.957 109.079V107.723C419.957 104.855 420.374 102.258 421.21 99.9312C422.046 97.6049 423.21 95.6173 424.703 93.9685C426.196 92.2973 427.956 91.0212 429.992 90.1404C432.024 89.2595 434.226 88.8189 436.599 88.8189C439.222 88.8189 441.516 89.2595 443.482 90.1404C445.448 91.0212 447.076 92.2632 448.363 93.8669C449.673 95.448 450.645 97.334 451.279 99.5246C451.932 101.716 452.26 104.132 452.26 106.775V110.264H423.924V104.403H444.195V103.76C444.148 102.291 443.854 100.914 443.311 99.6265C442.794 98.3391 441.989 97.2999 440.907 96.5096C439.821 95.7189 438.376 95.3237 436.568 95.3237C435.211 95.3237 434.002 95.6173 432.939 96.2046C431.901 96.7691 431.03 97.5935 430.329 98.6778C429.629 99.7618 429.086 101.072 428.701 102.608C428.341 104.121 428.161 105.826 428.161 107.723V109.079C428.161 110.682 428.376 112.173 428.805 113.551C429.256 114.906 429.913 116.092 430.771 117.108C431.629 118.124 432.668 118.926 433.889 119.513C435.11 120.078 436.498 120.361 438.057 120.361C440.023 120.361 441.775 119.965 443.311 119.175C444.848 118.384 446.183 117.266 447.313 115.821L451.617 119.988C450.828 121.14 449.799 122.247 448.534 123.308C447.268 124.347 445.719 125.194 443.889 125.849C442.081 126.504 439.979 126.831 437.584 126.831ZM466.836 96.4755V126.154H458.669V89.4967H466.464L466.836 96.4755ZM478.057 89.2595L477.991 96.8483C477.492 96.7581 476.95 96.6903 476.363 96.6452C475.798 96.5998 475.233 96.5774 474.668 96.5774C473.267 96.5774 472.036 96.7805 470.973 97.187C469.909 97.5711 469.016 98.1357 468.294 98.8809C467.593 99.6038 467.051 100.485 466.669 101.524C466.284 102.563 466.057 103.726 465.99 105.013L464.125 105.149C464.125 102.845 464.353 100.71 464.804 98.7456C465.255 96.7805 465.933 95.0528 466.836 93.562C467.764 92.0715 468.916 90.908 470.294 90.0726C471.696 89.2368 473.311 88.8189 475.141 88.8189C475.64 88.8189 476.17 88.864 476.735 88.9545C477.322 89.0447 477.764 89.1466 478.057 89.2595ZM494.431 122.156L504.397 89.4967H513.141L498.429 131.744C498.092 132.647 497.65 133.63 497.107 134.691C496.564 135.753 495.854 136.758 494.971 137.707C494.113 138.678 493.04 139.457 491.752 140.044C490.465 140.654 488.906 140.959 487.073 140.959C486.35 140.959 485.649 140.891 484.971 140.756C484.318 140.643 483.696 140.519 483.109 140.383L483.074 134.149C483.302 134.172 483.57 134.195 483.889 134.217C484.226 134.24 484.498 134.251 484.703 134.251C486.056 134.251 487.186 134.082 488.092 133.743C488.994 133.427 489.73 132.907 490.294 132.184C490.881 131.461 491.38 130.49 491.787 129.271L494.431 122.156ZM488.802 89.4967L497.514 116.939L498.972 125.544L493.311 127.001L479.988 89.4967H488.802Z" fill="white"/>
<path d="M211.52 43.8H198.92V49H205.44V50.2C205.44 52 204.48 53.48 197 53.48C189.28 53.48 187 51.84 187 45.6C187 42.04 187.8 38.72 188.12 37.64H183.72C183.04 39.28 182.4 42.88 182.4 46.12C182.4 53.24 184.64 58.68 196.6 58.68C206.28 58.68 210.04 55.16 210.04 49.76V49H211.52L212.2 48.6V44.2L211.52 43.8ZM223.588 43.8C220.948 43.8 219.708 43.8 219.708 41.12V20.48H215.308V40.88C215.308 43.52 214.188 43.8 211.508 43.8L210.828 44.2V48.6L211.508 49C214.788 49 216.948 48.24 218.188 46.64C219.068 48.2 220.708 49 223.588 49L224.268 48.6V44.2L223.588 43.8ZM235.818 43.8C231.458 43.8 230.098 42.4 230.098 39.56C230.098 37.48 231.538 36.16 234.818 36.16C237.578 36.16 239.618 36.72 240.458 36.92L241.538 32.12C240.418 31.64 237.738 30.96 234.818 30.96C229.698 30.96 225.498 33.48 225.498 39.56C225.498 41.12 225.698 42.56 226.498 43.8H223.578L222.898 43.96V48.88L223.578 49H243.258V43.8H235.818ZM278.83 43.8C276.51 43.8 275.27 43.8 274.99 41.96L275.03 40.44C275.11 35.72 272.63 32 259.51 30.56L258.75 35.52C269.11 36.64 270.39 38.6 270.39 40.88V43.8H256.35V49H268.03C270.63 49 272.51 48.32 273.63 46.96C274.55 48.32 276.15 49 278.83 49L279.51 48.6V44.2L278.83 43.8ZM278.812 49C285.453 49 287.773 46.48 287.773 41.24V31.92H283.373V41.24C283.373 43.52 282.053 43.8 278.812 43.8L278.132 44.2V48.6L278.812 49ZM279.813 57.64H284.013V53.24H279.813V57.64ZM285.853 57.64H290.053V53.24H285.853V57.64ZM302.306 23.88H297.906V28.28H302.306V23.88ZM306.186 43.8C303.546 43.8 302.306 43.8 302.306 41.12V31.92H297.906V50.68C297.906 52.04 297.226 52.48 295.066 52.48H291.186V57.68H295.226C300.906 57.68 302.306 54.36 302.306 50.52V48.2C303.226 48.72 304.506 49 306.186 49L306.866 48.6V44.2L306.186 43.8ZM330.435 43.8C327.795 43.8 326.555 43.8 326.555 41.12V32.84C326.555 32.84 323.395 30.96 319.075 30.96C312.955 30.96 308.995 35 308.995 40.88C308.995 41.72 309.075 42.56 309.275 43.32C308.675 43.72 307.675 43.8 306.195 43.8L305.515 44.2V48.6L306.195 49C308.835 49 310.435 48.44 311.515 47.32C312.915 48.6 314.915 49.4 317.715 49.4C321.475 49.4 323.755 48.28 325.075 46.72C325.955 48.24 327.595 49 330.435 49L331.115 48.6V44.2L330.435 43.8ZM322.115 42.56C321.635 43.56 320.315 44.2 318.035 44.2C314.995 44.2 313.595 42.48 313.595 40.28C313.595 37.88 315.195 36.16 318.595 36.16C320.755 36.16 322.155 36.88 322.155 36.88L322.115 42.56ZM330.453 49C336.533 49 338.653 46.44 338.653 40.68V20.48H334.253V40.88C334.253 43.52 333.133 43.8 330.453 43.8L329.773 44.2V48.6L330.453 49ZM344.269 49H348.669V20.48H344.269V49ZM392.673 21.12H388.273V25.52H392.673V21.12ZM401.953 43.8H396.633C398.033 42.2 398.633 40.4 398.633 38.32C398.633 32.96 395.593 29.96 390.473 29.96C385.393 29.96 381.753 32.96 381.753 38.88C381.753 40.76 382.273 42.36 383.513 43.8H373.353C369.033 43.8 367.273 42.32 367.273 37.52C367.273 35.88 367.793 33.2 368.313 31.76L363.913 31.8C363.313 33.4 362.673 35.92 362.673 38.16C362.673 44.32 364.593 49 373.353 49H401.953L402.633 48.8V44L401.953 43.8ZM390.193 35.16C392.433 35.16 394.033 36.28 394.033 38.6C394.033 40.04 393.753 41.44 390.353 43.8C386.953 41.44 386.353 40.04 386.353 38.6C386.353 36.28 387.913 35.16 390.193 35.16ZM422.738 19.16H418.338V23.36H422.738V19.16ZM419.458 25.08H415.258V29.48H419.458V25.08ZM421.498 29.48H425.698V25.08H421.498V29.48ZM438.778 43.8C436.098 43.8 434.658 43.4 433.818 42.96V31.96H429.418V42.12C429.418 43.32 428.458 43.8 425.938 43.8C424.258 43.8 423.258 43.48 422.618 43.12V34.4H418.218V42.12C418.218 43.32 417.178 43.8 414.418 43.8C412.497 43.8 411.418 43.48 410.738 43.08V34.4H406.338V42.12C406.338 43.32 405.498 43.8 403.418 43.8H401.938L401.257 44.2V48.6L401.938 49H403.298C406.178 49 407.817 48.04 408.618 46.76C409.498 48.16 411.338 49 414.378 49C417.698 49 419.578 48.12 420.498 46.88C421.378 48.2 423.057 49 425.898 49C429.178 49 430.978 48.04 431.818 46.76C432.898 48.16 435.138 49 438.778 49L439.458 48.6V44.2L438.778 43.8ZM444.693 23.84H440.493V28.24H444.693V23.84ZM450.733 23.84H446.533V28.24H450.733V23.84ZM452.293 43.8C449.173 43.8 447.733 43.8 447.733 41.12V31.92H443.333V41.24C443.333 43.52 442.013 43.8 438.773 43.8L438.093 44.2V48.6L438.773 49C442.613 49 444.893 48.16 446.173 46.44C447.093 48.16 448.973 49 452.293 49L452.973 48.6V44.2L452.293 43.8ZM464.769 31.88H460.569L471.969 23.68L469.369 19.68L453.849 31.52L455.129 36.44H464.609C469.649 36.44 470.769 38.36 470.769 41.08V43.8H452.289L451.609 43.96V48.84L452.289 49H470.809C473.849 49 475.369 47.28 475.369 43.8V41.08C475.369 35.88 473.489 31.88 464.769 31.88ZM480.167 49H484.567V20.48H480.167V49Z" fill="white"/>
<defs>
<linearGradient id="paint0_linear_7_466" x1="91.5111" y1="25.2308" x2="91.5111" y2="236.538" gradientUnits="userSpaceOnUse">
<stop stop-color="#C8102E"/>
<stop offset="1" stop-color="#ED3E45"/>
</linearGradient>
</defs>
</svg>
