<svg width="18" height="18" viewBox="0 0 18 18" fill="none" xmlns="http://www.w3.org/2000/svg">
<g clip-path="url(#clip0_2003_19)">
<path fill-rule="evenodd" clip-rule="evenodd" d="M0 1.5H2.25C2.66421 1.5 3 1.83579 3 2.25V13.628C2.12611 13.9369 1.5 14.7703 1.5 15.75C1.5 16.9926 2.50736 18 3.75 18C4.72966 18 5.56309 17.3739 5.87197 16.5H10.628C10.9369 17.3739 11.7703 18 12.75 18C13.9926 18 15 16.9926 15 15.75C15 14.5074 13.9926 13.5 12.75 13.5C11.7703 13.5 10.9369 14.1261 10.628 15H5.87197C5.64601 14.3607 5.13931 13.854 4.5 13.628V12.375H13.1858C14.1419 12.375 14.9936 11.7707 15.3095 10.8683L16.8845 6.36829C17.295 5.19541 16.6769 3.91183 15.5041 3.50132C15.2652 3.41771 15.0139 3.375 14.7608 3.375H6.75V4.875H14.7608C14.8451 4.875 14.9289 4.88924 15.0085 4.91711C15.3995 5.05394 15.6055 5.4818 15.4687 5.87276L13.8937 10.3728C13.7884 10.6736 13.5045 10.875 13.1858 10.875H4.5V2.25C4.5 1.00736 3.49264 0 2.25 0H0V1.5ZM4.5 15.75C4.5 15.3358 4.16421 15 3.75 15C3.33579 15 3 15.3358 3 15.75C3 16.1642 3.33579 16.5 3.75 16.5C4.16421 16.5 4.5 16.1642 4.5 15.75ZM12.75 15C13.1642 15 13.5 15.3358 13.5 15.75C13.5 16.1642 13.1642 16.5 12.75 16.5C12.3358 16.5 12 16.1642 12 15.75C12 15.3358 12.3358 15 12.75 15Z" fill="#1D252D"/>
</g>
<defs>
<clipPath id="clip0_2003_19">
<rect width="18" height="18" fill="white"/>
</clipPath>
</defs>
</svg>
