<svg width="568" height="160" viewBox="0 0 568 160" fill="none" xmlns="http://www.w3.org/2000/svg">
<path d="M546.964 160H21.037C9.46681 160 0 151 0 140V20.0001C0 8.99999 9.46662 0 21.037 0H546.963C558.533 0 568 8.99999 568 20.0001V140C568 151 558.534 160 546.964 160Z" fill="black"/>
<path d="M449.923 120H457.774V69.9954H449.923V120ZM520.637 88.0083L511.637 109.688H511.369L502.028 88.0082H493.571L507.578 118.309L499.592 135.164H507.784L529.368 88.0082L520.637 88.0083ZM476.115 114.321C473.539 114.321 469.955 113.099 469.955 110.074C469.955 106.214 474.423 104.735 478.276 104.735C481.731 104.735 483.352 105.442 485.451 106.408C484.841 111.039 480.646 114.321 476.115 114.321ZM477.061 86.9143C471.377 86.9143 465.49 89.2953 463.055 94.5706L470.022 97.3362C471.512 94.5706 474.284 93.6689 477.196 93.6689C481.256 93.6689 485.384 95.9861 485.451 100.103V100.618C484.029 99.8454 480.987 98.6877 477.263 98.6877C469.753 98.6877 462.104 102.611 462.104 109.945C462.104 116.636 468.264 120.947 475.164 120.947C480.444 120.947 483.352 118.695 485.181 116.058H485.451V119.917H493.028V100.745C493.028 91.8691 486.061 86.9143 477.061 86.9143ZM428.542 94.0953H417.375V76.955H428.542C434.411 76.955 437.743 81.5751 437.743 85.525C437.743 89.4001 434.411 94.0953 428.542 94.0953ZM428.339 69.9954H409.528V120H417.375V101.055H428.339C437.04 101.055 445.594 95.0657 445.594 85.525C445.594 75.9846 437.04 69.9954 428.339 69.9954ZM325.758 114.33C320.335 114.33 315.794 110.013 315.794 104.083C315.794 98.0911 320.335 93.7081 325.758 93.7081C331.113 93.7081 335.315 98.0909 335.315 104.083C335.315 110.013 331.113 114.33 325.758 114.33ZM334.774 90.8082H334.502C332.74 88.811 329.349 87.0067 325.08 87.0067C316.133 87.0067 307.932 94.4815 307.932 104.083C307.932 113.621 316.132 121.031 325.08 121.031C329.349 121.031 332.74 119.227 334.502 117.166H334.774V119.614C334.774 126.124 331.113 129.603 325.216 129.603C320.404 129.603 317.421 126.316 316.199 123.545L309.355 126.252C311.32 130.763 316.539 136.305 325.216 136.305C334.435 136.305 342.23 131.149 342.23 118.583V88.0378H334.774V90.8082ZM347.652 120H355.515V69.9936H347.652V120ZM367.106 103.503C366.903 96.9298 372.461 93.5798 376.459 93.5798C379.579 93.5798 382.222 95.0611 383.102 97.1895L367.106 103.503ZM391.507 97.8329C390.018 94.0297 385.474 87.0067 376.188 87.0067C366.97 87.0067 359.311 93.9017 359.311 104.019C359.311 113.557 366.902 121.031 377.069 121.031C385.273 121.031 390.018 116.263 391.983 113.492L385.882 109.625C383.851 112.461 381.069 114.33 377.069 114.33C373.071 114.33 370.224 112.589 368.393 109.175L392.319 99.7658L391.507 97.8329ZM200.878 92.2266V99.4438H219.043C218.501 103.503 217.077 106.467 214.908 108.53C212.266 111.044 208.13 113.814 200.877 113.814C189.693 113.814 180.95 105.244 180.95 94.6109C180.95 83.9783 189.693 75.4067 200.878 75.4067C206.91 75.4067 211.315 77.6626 214.569 80.5625L219.924 75.4721C215.383 71.3469 209.35 68.1895 200.878 68.1895C185.558 68.1895 172.679 80.0471 172.679 94.6109C172.679 109.175 185.558 121.031 200.878 121.031C209.148 121.031 215.383 118.455 220.262 113.621C225.278 108.852 226.838 102.15 226.838 96.7378C226.838 95.0611 226.704 93.5158 226.431 92.2266H200.878ZM247.491 114.33C242.067 114.33 237.39 110.076 237.39 104.019C237.39 97.8969 242.067 93.7081 247.491 93.7081C252.912 93.7081 257.59 97.8969 257.59 104.019C257.59 110.077 252.912 114.33 247.491 114.33ZM247.491 87.0067C237.594 87.0067 229.527 94.1593 229.527 104.019C229.527 113.814 237.594 121.031 247.491 121.031C257.387 121.031 265.453 113.814 265.453 104.019C265.453 94.1593 257.387 87.0067 247.491 87.0067ZM286.676 114.33C281.254 114.33 276.576 110.076 276.576 104.019C276.576 97.8969 281.254 93.7081 286.676 93.7081C292.097 93.7081 296.775 97.8969 296.775 104.019C296.775 110.077 292.097 114.33 286.676 114.33ZM286.676 87.0067C276.778 87.0067 268.714 94.1593 268.714 104.019C268.714 113.814 276.778 121.031 286.676 121.031C296.572 121.031 304.638 113.814 304.638 104.019C304.638 94.1593 296.572 87.0067 286.676 87.0067Z" fill="white"/>
<path d="M44.2135 30.445C42.8015 31.6561 41.9587 33.6761 41.9587 36.3576V35.7514V124.236V123.653C41.9587 126.129 42.6816 128.042 43.9059 129.273L44.2184 129.558V129.559C45.2093 130.409 46.48 130.86 47.9362 130.859C49.3592 130.859 50.9602 130.428 52.6498 129.517L113.722 96.5279L134.699 85.1951C137.363 83.7562 138.859 81.8999 139.109 80.0091V80.0013C138.859 78.1062 137.363 76.2513 134.699 74.8123L113.72 63.4809L52.65 30.4917C50.9567 29.5794 49.3547 29.1465 47.928 29.1465C46.4733 29.1465 45.2044 29.5964 44.2139 30.445H44.2135Z" fill="#00C1FF"/>
<path d="M44.2186 129.558L43.9059 129.273C42.6816 128.042 41.9587 126.129 41.9587 123.653V124.236V35.7732V36.3575C41.9587 33.6761 42.8015 31.656 44.2135 30.4449L96.3425 80.0029L44.2186 129.558Z" fill="url(#paint0_linear_5_437)"/>
<path d="M113.721 96.5283L96.342 80.0035L113.72 63.4815L134.699 74.8127C137.363 76.2519 138.859 78.1066 139.108 80.0019V80.0095C138.859 81.9003 137.363 83.7568 134.699 85.1955L113.721 96.5281" fill="url(#paint1_linear_5_437)"/>
<path d="M47.9368 130.858C46.4807 130.86 45.2101 130.408 44.2194 129.558V129.557L96.3433 80.0021L113.722 96.5269L52.6503 129.516C50.9607 130.427 49.3598 130.858 47.9368 130.858Z" fill="url(#paint2_linear_5_437)"/>
<path d="M96.3426 80.0039L44.2134 30.4459C45.2043 29.5974 46.4732 29.1474 47.9276 29.1474C49.3544 29.1474 50.9566 29.5801 52.6497 30.4927L113.72 63.4818L96.3424 80.0039" fill="url(#paint3_linear_5_437)"/>
<path d="M47.9378 131.445C46.4817 131.445 45.2094 130.994 44.2184 130.144L44.2168 130.145C44.2127 130.141 44.2083 130.138 44.2037 130.134L43.9327 129.883C43.9241 129.875 43.9161 129.866 43.9061 129.857L44.2186 129.559C45.2096 130.409 46.48 130.861 47.9365 130.859C49.3592 130.859 50.9603 130.428 52.6499 129.517L113.722 96.5281L114.113 96.9002L113.716 97.1142L52.6496 130.102C51.1098 130.931 49.6453 131.364 48.3223 131.436C48.1942 131.442 48.066 131.445 47.9378 131.445Z" fill="url(#paint4_linear_5_437)"/>
<path d="M43.9059 129.856C42.6816 128.625 41.9587 126.714 41.9587 124.236V123.653C41.9587 126.13 42.6816 128.042 43.9059 129.274L44.2184 129.558L43.9059 129.856Z" fill="url(#paint5_linear_5_437)"/>
<path d="M114.112 96.9002L113.721 96.5281L134.699 85.1954C137.363 83.7567 138.859 81.9002 139.109 80.0094C139.109 80.7033 138.945 81.3971 138.622 82.0723C137.97 83.4331 136.661 84.719 134.699 85.7798L114.112 96.9004" fill="url(#paint6_linear_5_437)"/>
<path d="M139.11 80.002C138.86 78.1066 137.364 76.252 134.701 74.8127L113.721 63.4815L114.112 63.1094H114.114L134.701 74.2299C137.638 75.8175 139.109 77.9094 139.11 80.002Z" fill="url(#paint7_linear_5_437)"/>
<path d="M41.9587 36.3584V35.7472C41.9587 35.5268 41.965 35.3112 41.9769 35.102V35.0925C41.9769 35.0896 41.9769 35.0865 41.9781 35.0833V35.0597C42.1047 32.9268 42.8015 31.263 43.9059 30.152L44.2135 30.4456C42.8015 31.6569 41.9587 33.677 41.9587 36.3584Z" fill="url(#paint8_linear_5_437)"/>
<path d="M113.72 63.4814L52.6499 30.4919C50.9568 29.5796 49.3547 29.1469 47.928 29.1469C46.4735 29.1469 45.2045 29.5968 44.2137 30.4454L43.9061 30.1516C44.0022 30.0549 44.1021 29.9617 44.2053 29.8721C44.2086 29.8688 44.2137 29.8656 44.2169 29.8625C45.2 29.0205 46.4554 28.5705 47.8969 28.5625H47.928C49.3547 28.5625 50.9568 28.9953 52.6499 29.908L114.113 63.1081L114.111 63.1093L113.72 63.4814Z" fill="url(#paint9_linear_5_437)"/>
<path d="M205.542 41.2V45.6L204.848 46H203.336V46.76C203.336 52.7067 198.759 55.68 189.606 55.68C185.71 55.68 182.7 55.1467 180.575 54.08C178.45 53.04 177.007 51.6133 176.243 49.8C175.48 47.9867 175.099 45.76 175.099 43.12C175.099 41.5467 175.235 39.96 175.508 38.36C175.781 36.7333 176.093 35.4933 176.448 34.64H180.943C180.698 35.4933 180.439 36.6533 180.166 38.12C179.921 39.56 179.799 41.0533 179.799 42.6C179.799 44.7067 180.098 46.32 180.698 47.44C181.324 48.56 182.36 49.3467 183.803 49.8C185.247 50.2533 187.317 50.48 190.014 50.48C192.439 50.48 194.277 50.3333 195.531 50.04C196.784 49.7733 197.615 49.4 198.024 48.92C198.432 48.4667 198.637 47.8933 198.637 47.2V46H191.976V40.8H204.848L205.542 41.2ZM218.688 41.2V45.6L217.993 46C216.549 46 215.378 45.8133 214.479 45.44C213.607 45.04 212.94 44.44 212.477 43.64C211.223 45.2133 208.948 46 205.653 46L204.958 45.6V41.2L205.653 40.8C206.66 40.8 207.423 40.7333 207.941 40.6C208.486 40.4667 208.881 40.2 209.126 39.8C209.398 39.3733 209.535 38.7333 209.535 37.88V17.48H214.03V38.12C214.03 38.9733 214.166 39.6 214.438 40C214.71 40.3733 215.092 40.6 215.583 40.68C216.099 40.76 216.903 40.8 217.993 40.8L218.688 41.2ZM238.905 40.8V46H218.801L218.106 45.88V40.96L218.801 40.8H221.784C221.102 39.76 220.762 38.3467 220.762 36.56C220.762 33.68 221.648 31.5333 223.418 30.12C225.188 28.68 227.477 27.96 230.283 27.96C231.645 27.96 232.952 28.08 234.206 28.32C235.486 28.56 236.467 28.8267 237.148 29.12L236.045 33.92C235.064 33.7067 234.152 33.5333 233.307 33.4C232.49 33.24 231.481 33.16 230.283 33.16C228.649 33.16 227.436 33.4667 226.646 34.08C225.857 34.6667 225.461 35.4933 225.461 36.56C225.461 38.0267 225.897 39.1067 226.769 39.8C227.64 40.4667 229.152 40.8 231.305 40.8H238.905ZM276.389 40.96V45.84L275.694 46C273.46 46 271.662 45.64 270.301 44.92C268.965 44.2 268.053 42.9333 267.563 41.12C267.126 42.1333 266.446 42.9333 265.52 43.52C264.621 44.1067 263.326 44.4 261.638 44.4C258.968 44.4 256.979 43.6 255.671 42C254.364 40.4 253.71 38.4 253.71 36C253.71 34.0533 254.146 32.3467 255.018 30.88C255.889 29.3867 257.115 28.2267 258.695 27.4C260.276 26.5733 262.115 26.16 264.212 26.16C265.165 26.16 266.132 26.32 267.113 26.64V24.92H271.608L271.567 37.24C271.567 38.2 271.69 38.9333 271.935 39.44C272.18 39.9467 272.589 40.3067 273.161 40.52C273.761 40.7067 274.604 40.8 275.694 40.8L276.389 40.96ZM262.741 39.2C264.812 39.2 266.268 38.72 267.113 37.76V37.48V31.64C266.16 31.4533 265.165 31.36 264.13 31.36C262.25 31.36 260.82 31.7333 259.84 32.48C258.886 33.2 258.409 34.1733 258.409 35.4C258.409 36.52 258.777 37.44 259.513 38.16C260.248 38.8533 261.324 39.2 262.741 39.2ZM291.028 41.2V45.6L290.334 46C288.644 46 287.296 45.8 286.288 45.4C285.28 44.9733 284.544 44.32 284.082 43.44C283.428 44.32 282.488 44.9733 281.262 45.4C280.036 45.8 278.456 46 276.522 46L275.827 45.6V41.2L276.522 40.8C277.72 40.8 278.633 40.7467 279.26 40.64C279.914 40.5067 280.39 40.2667 280.69 39.92C281.017 39.5467 281.18 38.9867 281.18 38.24V28.92H285.675V38.12C285.675 38.9733 285.825 39.6 286.125 40C286.452 40.3733 286.915 40.6 287.514 40.68C288.113 40.76 289.053 40.8 290.334 40.8L291.028 41.2ZM278.565 50.24H282.856V54.64H278.565V50.24ZM284.736 50.24H289.026V54.64H284.736V50.24ZM304.181 41.2V45.6L303.487 46C302.043 46 300.871 45.8133 299.972 45.44C299.101 45.04 298.434 44.44 297.97 43.64C296.718 45.2133 294.443 46 291.146 46L290.451 45.6V41.2L291.146 40.8C292.154 40.8 292.917 40.7333 293.434 40.6C293.98 40.4667 294.374 40.2 294.619 39.8C294.892 39.3733 295.028 38.7333 295.028 37.88V17.48H299.523V38.12C299.523 38.9733 299.66 39.6 299.932 40C300.204 40.3733 300.585 40.6 301.076 40.68C301.594 40.76 302.398 40.8 303.487 40.8L304.181 41.2ZM324.399 40.8V46H304.295L303.6 45.88V40.96L304.295 40.8H307.278C306.596 39.76 306.256 38.3467 306.256 36.56C306.256 33.68 307.141 31.5333 308.912 30.12C310.683 28.68 312.971 27.96 315.777 27.96C317.139 27.96 318.447 28.08 319.7 28.32C320.98 28.56 321.961 28.8267 322.642 29.12L321.539 33.92C320.558 33.7067 319.645 33.5333 318.801 33.4C317.984 33.24 316.976 33.16 315.777 33.16C314.143 33.16 312.93 33.4667 312.14 34.08C311.35 34.6667 310.955 35.4933 310.955 36.56C310.955 38.0267 311.391 39.1067 312.263 39.8C313.134 40.4667 314.646 40.8 316.799 40.8H324.399ZM367.072 41.2V45.6L366.377 46C364.389 46 362.918 45.6267 361.964 44.88C361.338 47.0933 360.099 48.84 358.246 50.12C356.421 51.4267 353.887 52.08 350.645 52.08C346.477 52.08 343.521 50.96 341.778 48.72C340.061 46.48 339.203 43.6 339.203 40.08C339.203 38.56 339.353 37.0133 339.653 35.44C339.98 33.8667 340.347 32.64 340.756 31.76H345.251C344.952 32.6667 344.652 33.8267 344.352 35.24C344.053 36.6533 343.903 38.1333 343.903 39.68C343.903 41.9467 344.407 43.72 345.414 45C346.45 46.2533 348.316 46.88 351.013 46.88C353.628 46.88 355.426 46.4 356.407 45.44C357.415 44.48 357.919 43.08 357.919 41.24V17.48H362.414V38.12C362.414 38.9733 362.55 39.6 362.822 40C363.095 40.3733 363.476 40.6 363.966 40.68C364.484 40.76 365.288 40.8 366.377 40.8L367.072 41.2ZM399.73 41.2V45.6L399.035 46C396.448 46 394.691 45.3467 393.764 44.04C392.075 45.3467 389.678 46 386.572 46H367.203L366.508 45.4V41.44L367.203 40.8H371.126V29.4H375.621V31.28L376.969 30.8C379.803 29.84 382.064 29.1333 383.752 28.68C385.469 28.2 387.021 27.96 388.411 27.96C390.89 27.96 392.879 28.7333 394.377 30.28C395.903 31.8 396.665 33.96 396.665 36.76C396.665 38.2267 396.488 39.48 396.134 40.52C396.434 40.6533 396.788 40.7333 397.196 40.76C397.633 40.7867 398.246 40.8 399.035 40.8L399.73 41.2ZM386.572 40.8C388.533 40.8 389.937 40.5467 390.781 40.04C391.626 39.5067 392.048 38.52 392.048 37.08C392.048 35.7467 391.639 34.76 390.822 34.12C390.032 33.48 388.956 33.16 387.594 33.16C386.449 33.16 385.088 33.36 383.507 33.76C381.954 34.16 379.721 34.8133 376.806 35.72L375.621 36.08V40.8H386.572ZM399.17 40.96L399.865 40.8H417.886V37.56C417.886 35.9333 417.313 34.8 416.169 34.16C415.053 33.4933 413.609 33.16 411.838 33.16C408.841 33.16 405.913 33.72 403.052 34.84L401.908 30.4C405.095 28.7733 408.555 27.96 412.287 27.96C415.012 27.96 417.409 28.56 419.479 29.76C421.55 30.96 422.585 33.24 422.585 36.6V40.8C422.585 44.2667 421.032 46 417.926 46H399.865L399.17 45.84V40.96ZM428.324 17.48H432.819V46H428.324V17.48Z" fill="white"/>
<defs>
<linearGradient id="paint0_linear_5_437" x1="75.2723" y1="34.8383" x2="32.6938" y2="79.7692" gradientUnits="userSpaceOnUse">
<stop stop-color="#00A0FF"/>
<stop offset="0.00657" stop-color="#00A1FF"/>
<stop offset="0.2601" stop-color="#00BEFF"/>
<stop offset="0.5122" stop-color="#00D2FF"/>
<stop offset="0.7604" stop-color="#00DFFF"/>
<stop offset="1" stop-color="#00E3FF"/>
</linearGradient>
<linearGradient id="paint1_linear_5_437" x1="142.355" y1="79.718" x2="40.5476" y2="79.718" gradientUnits="userSpaceOnUse">
<stop stop-color="#FFE000"/>
<stop offset="0.4087" stop-color="#FFBD00"/>
<stop offset="0.7754" stop-color="#FFA500"/>
<stop offset="1" stop-color="#FF9C00"/>
</linearGradient>
<linearGradient id="paint2_linear_5_437" x1="104.496" y1="95.7133" x2="32.3153" y2="171.325" gradientUnits="userSpaceOnUse">
<stop stop-color="#FF3A44"/>
<stop offset="1" stop-color="#C31162"/>
</linearGradient>
<linearGradient id="paint3_linear_5_437" x1="30.7782" y1="23.0987" x2="62.9446" y2="56.8463" gradientUnits="userSpaceOnUse">
<stop stop-color="#32A071"/>
<stop offset="0.0685" stop-color="#2DA771"/>
<stop offset="0.4762" stop-color="#15CF74"/>
<stop offset="0.8009" stop-color="#06E775"/>
<stop offset="1" stop-color="#00F076"/>
</linearGradient>
<linearGradient id="paint4_linear_5_437" x1="104.457" y1="107.177" x2="46.6735" y2="168.153" gradientUnits="userSpaceOnUse">
<stop stop-color="#CC2E36"/>
<stop offset="1" stop-color="#9C0E4E"/>
</linearGradient>
<linearGradient id="paint5_linear_5_437" x1="48.903" y1="34.8386" x2="11.3921" y2="74.4227" gradientUnits="userSpaceOnUse">
<stop stop-color="#008DE0"/>
<stop offset="0.00657" stop-color="#008DE0"/>
<stop offset="0.2601" stop-color="#00A7E0"/>
<stop offset="0.5122" stop-color="#00B8E0"/>
<stop offset="0.7604" stop-color="#00C4E0"/>
<stop offset="1" stop-color="#00C7E0"/>
</linearGradient>
<linearGradient id="paint6_linear_5_437" x1="142.355" y1="80.0058" x2="40.5477" y2="80.0058" gradientUnits="userSpaceOnUse">
<stop stop-color="#E0C500"/>
<stop offset="0.4087" stop-color="#E0A600"/>
<stop offset="0.7754" stop-color="#E09100"/>
<stop offset="1" stop-color="#E08900"/>
</linearGradient>
<linearGradient id="paint7_linear_5_437" x1="142.357" y1="80.0059" x2="40.5497" y2="80.0059" gradientUnits="userSpaceOnUse">
<stop stop-color="#FFE840"/>
<stop offset="0.4087" stop-color="#FFCE40"/>
<stop offset="0.7754" stop-color="#FFBC40"/>
<stop offset="1" stop-color="#FFB540"/>
</linearGradient>
<linearGradient id="paint8_linear_5_437" x1="48.8601" y1="34.9071" x2="12.6468" y2="71.4658" gradientUnits="userSpaceOnUse">
<stop stop-color="#40B8FF"/>
<stop offset="0.00657" stop-color="#40B9FF"/>
<stop offset="0.2601" stop-color="#40CEFF"/>
<stop offset="0.5122" stop-color="#40DDFF"/>
<stop offset="0.7604" stop-color="#40E7FF"/>
<stop offset="1" stop-color="#40EAFF"/>
</linearGradient>
<linearGradient id="paint9_linear_5_437" x1="30.7024" y1="33.5787" x2="56.5052" y2="60.8075" gradientUnits="userSpaceOnUse">
<stop stop-color="#65B895"/>
<stop offset="0.0685" stop-color="#62BD95"/>
<stop offset="0.4762" stop-color="#50DB97"/>
<stop offset="0.8009" stop-color="#44ED98"/>
<stop offset="1" stop-color="#40F498"/>
</linearGradient>
</defs>
</svg>
