<svg  viewBox="0 0 20 20" fill="none" xmlns="http://www.w3.org/2000/svg">
<g clip-path="url(#clip0_6048_9042)">
<path fill-rule="evenodd" clip-rule="evenodd" d="M14.1969 1.36253C16.594 2.01187 18.2373 3.82753 18.3293 5.89948L18.3333 6.08294L18.3334 9.44087C19.273 9.71557 19.9548 10.4417 19.9978 11.3042L20 11.3909V14.1478C20 15.2638 18.931 16.1732 17.5937 16.214L17.5 16.2154L14.4792 16.2153L11.6637 17.613C11.6135 18.4538 10.9305 19.1257 10.0808 19.1659L10 19.1678C9.07952 19.1678 8.33333 18.4272 8.33333 17.5137C8.33333 16.6001 9.07952 15.8595 10 15.8595C10.3394 15.8595 10.6551 15.9602 10.9184 16.1331L14.1665 14.5212L14.1667 9.32321L16.6665 9.32286L16.6667 6.08294C16.6667 4.53133 15.461 3.15544 13.6781 2.67251C11.6327 2.11845 9.43994 2.06478 7.36264 2.51459L7.01754 2.59422L6.67426 2.67835C4.75661 3.14832 3.42168 4.57365 3.33755 6.21431L3.33333 6.37906L3.33308 9.32286L5.83333 9.32321V16.2154H2.5C1.15067 16.2154 0.0510118 15.3313 0.00172436 14.2253L0 14.1478V11.3909C0 10.4906 0.69566 9.72472 1.66664 9.44087L1.66667 6.37906C1.66667 4.12032 3.41567 2.12352 5.9902 1.41159L6.20074 1.3567L6.54402 1.27257C9.04684 0.659188 11.7161 0.690567 14.1969 1.36253ZM4.16667 10.7017H2.5C2.09513 10.7017 1.7577 10.9405 1.68237 11.257L1.67227 11.3105L1.66667 11.3909V14.1478C1.66667 14.5111 2.00662 14.8088 2.43781 14.8351L2.5 14.837H4.16667V10.7017ZM17.5 10.7017H15.8333V14.837H17.5C17.9393 14.837 18.2992 14.5558 18.331 14.1992L18.3333 14.1478V11.3909C18.3333 11.0102 17.9602 10.7017 17.5 10.7017Z" fill="currentColor"/>
</g>
<defs>
<clipPath id="clip0_6048_9042">
<rect width="20" height="20" fill="white"/>
</clipPath>
</defs>
</svg>
