<svg width="18" height="18" viewBox="0 0 18 18" fill="none" xmlns="http://www.w3.org/2000/svg">
<g clip-path="url(#clip0_9024_17467)">
<path fill-rule="evenodd" clip-rule="evenodd" d="M12.7772 1.22526C14.9346 1.80966 16.4136 3.44375 16.4963 5.30851L16.5 5.47363L16.5 8.49576C17.3457 8.74299 17.9593 9.3965 17.9981 10.1727L18 10.2508V12.732C18 13.7364 17.0379 14.5549 15.8344 14.5916L15.75 14.5929L13.0313 14.5927L10.4973 15.8507C10.4522 16.6074 9.83745 17.2121 9.07268 17.2483L9 17.25C8.17157 17.25 7.5 16.5835 7.5 15.7613C7.5 14.9391 8.17157 14.2726 9 14.2726C9.30546 14.2726 9.5896 14.3632 9.8266 14.5188L12.7499 13.068L12.75 8.38986L14.9999 8.38955L15 5.47363C15 4.07717 13.9149 2.83888 12.3103 2.40424C10.4694 1.90558 8.49594 1.85728 6.62638 2.2621L6.31578 2.33377L6.00683 2.40949C4.28095 2.83246 3.07951 4.11526 3.0038 5.59185L3 5.74013L2.99977 8.38955L5.25 8.38986V14.5929H2.25C1.0356 14.5929 0.0459106 13.7972 0.00155193 12.8017L0 12.732V10.2508C0 9.44052 0.626094 8.75123 1.49998 8.49576L1.5 5.74013C1.5 3.70726 3.0741 1.91014 5.39118 1.26941L5.58067 1.22001L5.88962 1.14429C8.14216 0.592244 10.5445 0.620485 12.7772 1.22526ZM3.75 9.63046H2.25C1.88562 9.63046 1.58193 9.84538 1.51413 10.1303L1.50505 10.1784L1.5 10.2508V12.732C1.5 13.059 1.80595 13.3269 2.19403 13.3506L2.25 13.3523H3.75V9.63046ZM15.75 9.63046H14.25V13.3523H15.75C16.1454 13.3523 16.4693 13.0992 16.4979 12.7783L16.5 12.732V10.2508C16.5 9.90818 16.1642 9.63046 15.75 9.63046Z" fill="#DDE0E2"/>
</g>
<defs>
<clipPath id="clip0_9024_17467">
<rect width="18" height="18" fill="white"/>
</clipPath>
</defs>
</svg>
