<svg  viewBox="0 0 16 20" fill="none" xmlns="http://www.w3.org/2000/svg">
<path fill-rule="evenodd" clip-rule="evenodd" d="M8.60639 18.9049C11.5624 15.769 13.4119 13.5136 14.1824 12.0843C15.0557 10.4643 15.5 8.93607 15.5 7.5C15.5 3.35786 12.1421 0 8 0C3.85786 0 0.5 3.35786 0.5 7.5C0.5 10.7943 2.83182 14.5835 7.42677 18.9382L8.03325 19.513L8.60639 18.9049ZM2.16667 7.5C2.16667 4.27834 4.77834 1.66667 8 1.66667C11.2217 1.66667 13.8333 4.27834 13.8333 7.5C13.8333 8.63699 13.4657 9.90141 12.7153 11.2935C12.0824 12.4676 10.4932 14.4333 7.96967 17.1466C4.08125 13.3309 2.16667 10.0951 2.16667 7.5ZM8 9.16667C7.07952 9.16667 6.33333 8.42047 6.33333 7.5C6.33333 6.57952 7.07952 5.83333 8 5.83333C8.92047 5.83333 9.66667 6.57952 9.66667 7.5C9.66667 8.42047 8.92047 9.16667 8 9.16667Z" fill="currentColor"/>
</svg>
