<svg width="34" height="22" viewBox="0 0 34 22" fill="none" xmlns="http://www.w3.org/2000/svg">
<path d="M12.6211 10.6V2.51579C12.6211 1.67368 13.2948 1 14.1369 1H31.4843C32.3264 1 33 1.67368 33 2.51579V13.8561C33 14.6982 32.3264 15.3719 31.4843 15.3719H14.193" stroke="#4F008C" stroke-miterlimit="10"/>
<path d="M12.8447 4.03162H32.7184" stroke="#4F008C" stroke-miterlimit="10"/>
<path d="M12.8447 6.61414H32.7184" stroke="#4F008C" stroke-miterlimit="10"/>
<path d="M25.8701 10.4878H31.7087" stroke="#FF375E" stroke-miterlimit="10"/>
<path d="M24.5791 12.2842H31.7089" stroke="#FF375E" stroke-miterlimit="10"/>
<path d="M10.6006 10.6H20.2006C20.2006 11.9473 19.1339 13.014 17.7866 13.014H15.3725" stroke="#4F008C" stroke-miterlimit="10"/>
<path d="M15.4287 12.228C15.4287 14.8666 13.2953 17.0561 10.6006 17.0561" stroke="#4F008C" stroke-miterlimit="10"/>
<path d="M24.1859 15.8212C24.1859 17.1685 23.1192 18.2352 21.7718 18.2352H16.5508" stroke="#4F008C" stroke-miterlimit="10"/>
<path d="M5.8274 18.6281C5.8274 19.9754 5.43442 21.0421 8.24143 21.0421H19.0204C20.3677 21.0421 21.4344 19.9754 21.4344 18.6281" stroke="#4F008C" stroke-miterlimit="10"/>
<path d="M1 18.628V13.014C1 11.6666 2.06667 10.6 3.41404 10.6C4.7614 10.6 5.82807 11.6666 5.82807 13.014V18.628C5.82807 19.9754 6.10877 21.0421 3.41404 21.0421H1V18.628Z" stroke="#4F008C" stroke-miterlimit="10"/>
<path d="M5.82812 12.2281L12.3965 5.60352" stroke="#4F008C" stroke-miterlimit="10"/>
</svg>
