<svg width="20" height="20" viewBox="0 0 20 20" fill="none" xmlns="http://www.w3.org/2000/svg">
<g clip-path="url(#clip0_9024_17493)">
<path d="M9.99616 1.66699C5.39199 1.66699 1.66699 5.39616 1.66699 10.0003C1.66699 14.6045 5.39199 18.3337 9.99616 18.3337C14.6003 18.3337 18.3337 14.6045 18.3337 10.0003C18.3337 5.39616 14.6003 1.66699 9.99616 1.66699ZM15.767 6.66699H13.3087C13.0378 5.62533 12.6587 4.62533 12.1587 3.70033C13.692 4.22533 14.967 5.28783 15.767 6.66699ZM10.0003 3.36283C10.6962 4.36283 11.2378 5.47533 11.592 6.66699H8.40866C8.76283 5.47533 9.30449 4.36283 10.0003 3.36283ZM3.55033 11.667C3.41283 11.1337 3.33366 10.5753 3.33366 10.0003C3.33366 9.42532 3.41283 8.86699 3.55033 8.33366H6.36283C6.29616 8.87949 6.25033 9.43366 6.25033 10.0003C6.25033 10.567 6.29616 11.1212 6.36699 11.667H3.55033ZM4.22949 13.3337H6.68782C6.95866 14.3753 7.33783 15.3753 7.83783 16.3045C6.30449 15.7795 5.02949 14.7128 4.22949 13.3337ZM6.68782 6.66699H4.22949C5.02949 5.28783 6.30449 4.22116 7.83783 3.69616C7.33783 4.62533 6.95866 5.62533 6.68782 6.66699ZM10.0003 16.6378C9.30866 15.6378 8.76699 14.5253 8.40866 13.3337H11.592C11.2337 14.5253 10.692 15.6378 10.0003 16.6378ZM11.9503 11.667H8.05032C7.97116 11.1212 7.91699 10.567 7.91699 10.0003C7.91699 9.43366 7.97116 8.87949 8.05032 8.33366H11.9503C12.0295 8.87949 12.0837 9.43366 12.0837 10.0003C12.0837 10.567 12.0295 11.1212 11.9503 11.667ZM12.1628 16.3003C12.6628 15.3712 13.042 14.3753 13.3128 13.3337H15.7712C14.967 14.7128 13.692 15.7753 12.1628 16.3003ZM13.6337 11.667C13.7003 11.1212 13.7503 10.567 13.7503 10.0003C13.7503 9.43366 13.7045 8.87949 13.6337 8.33366H16.4462C16.5837 8.86699 16.667 9.42532 16.667 10.0003C16.667 10.5753 16.5878 11.1337 16.4462 11.667H13.6337Z" fill="#DDE0E2"/>
</g>
<defs>
<clipPath id="clip0_9024_17493">
<rect width="20" height="20" fill="white"/>
</clipPath>
</defs>
</svg>
