<svg width="20" height="20" viewBox="0 0 20 20" fill="none" xmlns="http://www.w3.org/2000/svg">
<g clip-path="url(#clip0_3_4821)">
<mask id="mask0_3_4821" style="mask-type:luminance" maskUnits="userSpaceOnUse" x="0" y="0" width="20" height="20">
<path d="M20 0H0V20H20V0Z" fill="white"/>
</mask>
<g mask="url(#mask0_3_4821)">
<path fill-rule="evenodd" clip-rule="evenodd" d="M4.57777 0C3.84465 0 3.15477 0.299064 2.58204 0.842969L1.15806 2.26118C0.486224 2.93047 0.0984004 3.76 0.0192869 4.70085C-0.0646757 5.75291 0.124943 6.8409 0.599079 8.11291C1.29708 10.0003 2.34728 11.7469 3.88828 13.5915C5.76478 15.8261 8.02763 17.5911 10.6147 18.8404C12.0553 19.5205 13.2324 19.9053 14.5545 19.9905L14.8717 20C15.9916 20 16.9436 19.6244 17.7171 18.8693L17.9046 18.6747L17.9224 18.6517C17.9988 18.5599 18.0846 18.4661 18.1923 18.3564L18.5787 17.9774L18.8724 17.6926C18.964 17.6021 19.0502 17.5149 19.1336 17.4282C20.294 16.2233 20.2907 14.5717 19.1119 13.3973L16.8498 11.1438C16.306 10.5805 15.6037 10.2587 14.8528 10.2587L14.6677 10.2653C13.9927 10.3131 13.361 10.6218 12.8408 11.1401L11.9866 11.9905L11.8888 11.9328C10.7535 11.2146 9.71468 10.2719 8.70962 9.04425L8.53531 8.81955C8.36871 8.5997 8.22484 8.3938 8.1001 8.19635L7.99227 8.02L8.84433 7.16515C9.42238 6.58928 9.74933 5.88404 9.74933 5.14061C9.74933 4.39423 9.42307 3.68731 8.84121 3.11298L7.63322 1.90897L7.04794 1.313C6.86367 1.12804 6.70685 0.976056 6.54856 0.829959C6.00794 0.301306 5.31683 0 4.57777 0ZM4.64198 2.00033C4.8634 2.00033 5.08062 2.09503 5.29355 2.30303L5.51709 2.51469C5.63066 2.62464 5.74983 2.74352 5.88765 2.88366L6.42142 3.42671L7.52982 4.53092C7.7655 4.76357 7.87033 4.9907 7.87033 5.1981C7.87033 5.40245 7.76383 5.63215 7.52982 5.86528L7.2341 6.16212L6.8947 6.50647C6.63603 6.76595 6.43926 6.95494 6.22884 7.14449L5.72597 7.5975L5.99538 8.2184C6.27835 8.87056 6.67541 9.50031 7.25951 10.2368C8.38505 11.6119 9.56104 12.679 10.8599 13.5007L11.0305 13.6023C11.0902 13.6357 11.1548 13.6699 11.2303 13.7085L11.6239 13.9095L12.2956 14.2943L14.1363 12.4605C14.3584 12.2392 14.5819 12.1384 14.7961 12.1384C15.0072 12.1384 15.2206 12.2361 15.4284 12.4513L17.6765 14.6912C18.1088 15.1218 18.1097 15.5795 17.6703 16.0357C17.5624 16.1479 17.4467 16.2634 17.3135 16.3924L16.932 16.7611L16.7439 16.9489C16.6529 17.0419 16.5713 17.129 16.4945 17.2159L16.3862 17.3406L16.4268 17.3002C15.9735 17.7894 15.4809 18.0003 14.8147 18.0003L14.6025 17.9938C13.6028 17.9292 12.6392 17.6141 11.419 17.0381C9.11012 15.9231 7.08601 14.3443 5.40366 12.3409C4.01418 10.6777 3.08693 9.13559 2.47476 7.48026C2.09514 6.4618 1.95439 5.65423 2.0132 4.91725C2.05359 4.43701 2.2422 4.03358 2.59102 3.68609L3.9821 2.30026C4.19531 2.09815 4.42098 2.00033 4.64198 2.00033Z" fill="#1D252D"/>
</g>
</g>
<defs>
<clipPath id="clip0_3_4821">
<rect width="20" height="20" fill="white"/>
</clipPath>
</defs>
</svg>
