<svg width="26" height="32" viewBox="0 0 26 32" fill="none" xmlns="http://www.w3.org/2000/svg">
<path d="M15.3242 19.8612L21.3926 13.7382" stroke="#FF375E" stroke-miterlimit="10"/>
<path d="M15.3242 13.7382L21.3926 19.8612" stroke="#FF375E" stroke-miterlimit="10"/>
<path d="M18.8771 25.7109V26.2576V27.2963C18.8771 28.9911 17.5104 30.3579 15.8156 30.3579H1.5467V26.2576V25.7109V7.83377V7.28707V4.60823C1.5467 2.91345 2.91345 1.5467 4.60823 1.5467H15.8156C17.5104 1.5467 18.8771 2.91345 18.8771 4.60823V7.28707V7.83377V9.58321C19.0411 9.58321 19.2598 9.63788 19.4238 9.63788V4.60823C19.4238 2.6401 17.7837 1 15.8156 1H4.60823C2.6401 1 1 2.6401 1 4.60823V30.9046H15.8156C17.7837 30.9046 19.4238 29.2645 19.4238 27.2963V23.9068C19.2598 23.9068 19.0411 23.9615 18.8771 23.9615V25.7109V25.7109Z" fill="#4F008C" stroke="#4F008C" stroke-width="0.5"/>
<path d="M18.8773 7.28699H1.54688V7.83369H18.8773V7.28699Z" fill="#4F008C" stroke="#4F008C"/>
<path d="M7.77927 25.7109H1.54688V26.2576H7.77927V25.7109Z" fill="#4F008C" stroke="#4F008C"/>
<path d="M13.1915 4.06152H7.23242V4.60822H13.1915V4.06152Z" fill="#4F008C" stroke="#4F008C"/>
<path d="M18.8769 25.7109H12.6445V26.2576H18.8769V25.7109Z" fill="#4F008C" stroke="#4F008C"/>
<path d="M10.9497 25.6016H9.47363V26.1483H10.9497V25.6016Z" fill="#4F008C" stroke="#4F008C"/>
<path d="M18.3299 23.4694C14.667 23.4694 11.6602 20.4625 11.6602 16.7996C11.6602 13.1367 14.667 10.1299 18.3299 10.1299C21.9928 10.1299 24.9997 13.1367 24.9997 16.7996C24.9997 20.4625 21.9928 23.4694 18.3299 23.4694ZM18.3299 10.5672C14.8857 10.5672 12.0975 13.3554 12.0975 16.7996C12.0975 20.2439 14.8857 23.032 18.3299 23.032C21.7741 23.032 24.5623 20.2439 24.5623 16.7996C24.5623 13.3554 21.7741 10.5672 18.3299 10.5672Z" fill="#FF375E" stroke="#FF375E" stroke-width="0.5"/>
</svg>
