<svg width="18" height="18" viewBox="0 0 18 18" fill="none" xmlns="http://www.w3.org/2000/svg">
<path fill-rule="evenodd" clip-rule="evenodd" d="M9.75 0.75V2.2912C12.8049 2.62889 15.2453 5.0052 15.6808 8.02954H17.2419V9.52954H15.7295C15.4787 12.7614 12.9519 15.3549 9.75 15.7088V17.2575H8.25V15.7088C5.05686 15.3558 2.53502 12.7755 2.27256 9.55591H0.761719V8.05591H2.3155C2.74053 5.01902 5.18627 2.62987 8.25 2.2912V0.75H9.75ZM14.25 9C14.25 6.1005 11.8995 3.75 9 3.75C6.1005 3.75 3.75 6.1005 3.75 9C3.75 11.8995 6.1005 14.25 9 14.25C11.8995 14.25 14.25 11.8995 14.25 9ZM12 9C12 10.6569 10.6569 12 9 12C7.34315 12 6 10.6569 6 9C6 7.34315 7.34315 6 9 6C10.6569 6 12 7.34315 12 9Z" fill="#DDE0E2"/>
</svg>
