<svg width="18" height="18" viewBox="0 0 18 18" fill="none" xmlns="http://www.w3.org/2000/svg">
<path d="M8.67773 1.57241L2.9956 4.27505C2.81194 4.3628 2.67183 4.52142 2.60742 4.7145C2.38061 5.39262 2.25 6.12167 2.25 6.88247C2.25 14.0464 8.74658 16.4567 8.74658 16.4567C8.91041 16.5155 9.08959 16.5155 9.25342 16.4567C9.25342 16.4567 15.75 14.0464 15.75 6.88247C15.75 6.12167 15.6194 5.39262 15.3926 4.7145C15.3282 4.52142 15.1881 4.3628 15.0044 4.27505L9.32227 1.57241C9.12462 1.46899 8.84192 1.47762 8.67773 1.57241ZM9 3.0812L14.0156 5.4645C14.1436 5.92115 14.25 6.38815 14.25 6.88247C14.25 12.6914 9.69548 14.6583 9 14.9289C8.30452 14.6583 3.75 12.6914 3.75 6.88247C3.75 6.38815 3.85639 5.92115 3.98438 5.4645L9 3.0812Z" fill="#DDE0E2"/>
<path d="M11.3947 6.30663L8.65108 10.0478L7.31661 8.50829C7.04511 8.19576 6.57172 8.16232 6.25899 8.43358C5.94601 8.70465 5.91192 9.17807 6.18282 9.4912L8.13253 11.7412C8.44762 12.1054 9.0194 12.0825 9.3044 11.6943L12.6047 7.19432C12.85 6.86025 12.7779 6.39052 12.4436 6.14549C12.0885 5.9049 11.6461 5.94579 11.3947 6.30663Z" fill="#DDE0E2"/>
</svg>
