<svg width="18" height="18" viewBox="0 0 18 18" fill="none" xmlns="http://www.w3.org/2000/svg">
<g id="User">
<path id="Combined Shape" fill-rule="evenodd" clip-rule="evenodd" d="M13.5 4.125C13.5 6.40317 11.6532 8.25 9.375 8.25C7.09683 8.25 5.25 6.40317 5.25 4.125C5.25 1.84683 7.09683 0 9.375 0C11.6532 0 13.5 1.84683 13.5 4.125ZM6.75 4.125C6.75 5.57475 7.92525 6.75 9.375 6.75C10.8247 6.75 12 5.57475 12 4.125C12 2.67525 10.8247 1.5 9.375 1.5C7.92525 1.5 6.75 2.67525 6.75 4.125ZM1.5 18H13.9342C15.7655 18 17.25 16.6569 17.25 15V12C17.25 10.3431 15.7655 9 13.9342 9H4.81579C2.98453 9 1.5 10.3431 1.5 12V18ZM14.05 16.5H3V12C3 11.1716 3.76112 10.5 4.7 10.5H14.05C14.9889 10.5 15.75 11.1716 15.75 12V15C15.75 15.8284 14.9889 16.5 14.05 16.5Z" fill="white"/>
</g>
</svg>
