<svg width="18" height="18" viewBox="0 0 18 18" fill="none" xmlns="http://www.w3.org/2000/svg">
<path fill-rule="evenodd" clip-rule="evenodd" d="M11.25 13.5C14.9779 13.5 18 10.4779 18 6.75C18 3.02208 14.9779 0 11.25 0C7.52208 0 4.5 3.02208 4.5 6.75C4.5 8.29774 5.02092 9.72382 5.89699 10.8625L0 16.5L1.03654 17.5842L6.93746 11.943C8.10698 12.9153 9.61021 13.5 11.25 13.5ZM11.25 12C8.3505 12 6 9.6495 6 6.75C6 3.85051 8.3505 1.5 11.25 1.5C14.1495 1.5 16.5 3.85051 16.5 6.75C16.5 9.6495 14.1495 12 11.25 12Z" fill="#8E9AA0"/>
</svg>
