<svg viewBox="0 0 60 30" fill="none" xmlns="http://www.w3.org/2000/svg">
<path fill-rule="evenodd" clip-rule="evenodd" d="M30.3968 30C32.8248 30 34.5523 29.2523 35.2994 28.5982V23.5514C34.7392 23.972 33.6186 24.4859 32.1711 24.4859C31.1438 24.4859 30.3968 24.2524 29.8364 23.7383C29.3695 23.271 29.1361 22.4766 29.1361 21.4019V0H22.9727V6.30845H35.2994V12.2898H22.9727V22.8972C22.9727 25.0468 23.6264 26.7757 24.7937 27.9906C26.1011 29.299 28.0155 30 30.3968 30ZM49.2613 29.9999C52.7164 29.9999 55.3779 28.7382 57.1989 26.9625C58.6464 25.5607 59.5336 23.9252 60.0005 22.2429L54.5375 20.4205C54.304 21.2616 53.837 22.1495 53.09 22.8504C52.2028 23.6915 50.9889 24.299 49.2613 24.299C47.6737 24.299 46.1796 23.6915 45.1056 22.6167C44.0317 21.4953 43.378 19.8598 43.378 17.8037C43.378 15.7009 44.0317 14.1122 45.1056 12.9906C46.1796 11.9159 47.627 11.355 49.2146 11.355C50.8955 11.355 52.0627 11.9159 52.9032 12.757C53.6036 13.4579 54.0238 14.3457 54.304 15.2336L59.8604 13.3644C59.4401 11.7288 58.553 10.0934 57.2456 8.73831C55.3779 6.91585 52.6698 5.60742 49.0745 5.60742C45.7593 5.60742 42.771 6.8691 40.6232 9.01862C38.4753 11.2149 37.168 14.2523 37.168 17.8037C37.168 21.3551 38.522 24.3924 40.7166 26.5887C42.8644 28.7382 45.8994 29.9999 49.2613 29.9999ZM9.8521 30C12.9804 30 15.5485 29.0187 17.2295 27.3832C18.4902 26.1214 19.2372 24.4393 19.2372 22.4766C19.2372 20.7009 18.5835 19.1122 17.3696 17.8972C16.1555 16.6823 14.4279 15.7944 12.2334 15.3738L8.63806 14.6729C7.14393 14.3925 6.3035 13.6449 6.3035 12.6169C6.3035 11.2617 7.61082 10.3271 9.71202 10.3271C11.0193 10.3271 12.14 10.7477 12.8871 11.4954C13.354 12.0094 13.6809 12.6636 13.7742 13.4113L18.9571 12.243C18.817 10.7477 18.1166 9.43929 17.0427 8.36456C15.3617 6.68223 12.747 5.6075 9.66529 5.6075C6.81711 5.6075 4.43575 6.54211 2.80154 8.03742C1.40077 9.34577 0.606982 11.1215 0.606982 13.0841C0.606982 14.8131 1.16732 16.2617 2.28792 17.3832C3.40852 18.5047 5.04281 19.3458 7.19065 19.8598L10.7393 20.7009C12.5136 21.1215 13.3073 21.7757 13.3073 22.944C13.3073 24.3925 11.9999 25.2337 9.8521 25.2337C8.31125 25.2337 7.05056 24.7197 6.25678 23.8786C5.69644 23.3178 5.36963 22.5701 5.3229 21.729L0 22.8972C0.140085 24.4859 0.887151 25.8879 2.00775 27.0094C3.78205 28.8785 6.63031 30 9.8521 30Z" fill="#4F008C"/>
</svg>
